<svg width="512" height="512" xmlns="http://www.w3.org/2000/svg">

 <g>
  <title>background</title>
  <rect fill="none" id="canvas_background" height="402" width="582" y="-1" x="-1"/>
 </g>
 <g>
  <title>Layer 1</title>
  <path id="svg_1" fill="#ffffff" d="m278.5,219.5l0,-26.998c0,-12.187 2.946,-18.002 21.864,-18.002l23.136,0l0,-45l-39.007,0c-48.535,0 -63.993,21.553 -63.993,59.744l0,30.256l-33,0l0,46l33,0l0,136l58,0l0,-136l40.216,0l5.385,-46l-45.601,0z"/>
  <path id="svg_2" fill="#ffffff" d="m254.5,16.5c-131.996,0 -239,107.004 -239,239s107.004,239 239,239s239,-107.004 239,-239s-107.004,-239 -239,-239zm158.392,397.392c-42.308,42.308 -98.559,65.608 -158.392,65.608c-59.833,0 -116.084,-23.3 -158.392,-65.608c-42.308,-42.308 -65.608,-98.559 -65.608,-158.392c0,-59.833 23.3,-116.084 65.608,-158.392c42.308,-42.308 98.559,-65.608 158.392,-65.608c59.833,0 116.084,23.3 158.392,65.608c42.308,42.308 65.608,98.559 65.608,158.392c0,59.833 -23.3,116.084 -65.608,158.392z"/>
 </g>
</svg>