<svg width="512" height="512" xmlns="http://www.w3.org/2000/svg">

 <g>
  <title>background</title>
  <rect fill="none" id="canvas_background" height="514" width="514" y="-1" x="-1"/>
 </g>
 <g>
  <title>Layer 1</title>
  <path id="svg_1" fill="#ffffff" d="m374.5,369.5l0,-88.875c0,-45.875 -24.888,-67.158 -57.17,-67.158c-26.022,0 -37.83,14.666 -44.83,24.859l0,-20.826l-49,0l0,152l49,0l0,-86.64c0,-4.471 0.608,-8.853 1.95,-12.072c3.577,-8.943 12.066,-18.153 25.659,-18.153c17.795,0 25.391,13.682 25.391,33.713l0,83.152l49,0z"/>
  <path id="svg_2" fill="#ffffff" d="m171.684,141.034c-16.097,0 -26.559,11.299 -26.559,26.233c0,14.666 10.194,26.233 25.933,26.233l0.357,0c16.365,0 26.559,-11.567 26.559,-26.233c-0.357,-15.023 -10.193,-26.233 -26.29,-26.233z"/>
  <rect id="svg_3" y="217.5" x="145.5" width="49" height="152" fill="#ffffff"/>
  <path stroke="null" id="svg_4" fill="#ffffff" d="m254.5,16.5c-131.996,0 -239,107.004 -239,239s107.004,239 239,239s239,-107.004 239,-239s-107.004,-239 -239,-239zm158.392,397.392c-42.308,42.308 -98.559,65.608 -158.392,65.608c-59.833,0 -116.084,-23.3 -158.392,-65.608c-42.308,-42.308 -65.608,-98.559 -65.608,-158.392c0,-59.833 23.3,-116.084 65.608,-158.392c42.308,-42.308 98.559,-65.608 158.392,-65.608c59.833,0 116.084,23.3 158.392,65.608c42.308,42.308 65.608,98.559 65.608,158.392c0,59.833 -23.3,116.084 -65.608,158.392z"/>
 </g>
</svg>